<svg width="56" height="22" viewBox="0 0 63 25" fill="none" xmlns="http://www.w3.org/2000/svg">
<path d="M9.82165 5.33366C10.5296 5.09675 11.2863 4.96943 12.0748 4.96943C15.5092 4.96943 18.3766 7.40943 19.0341 10.6538L23.9037 9.65935C22.7864 4.14913 17.9151 -0.000134151 12.0748 -0.000134151C10.7347 -0.000134151 9.44878 0.217674 8.24606 0.620096L9.82165 5.33366Z" fill="#FBC707"/>
<path d="M4.07469 21.1157L7.36864 17.3925C5.89809 16.0898 4.97093 14.1895 4.97093 12.0724C4.97093 9.95614 5.89718 8.0568 7.36591 6.75541L4.07196 3.03176C1.57467 5.24349 0 8.47423 0 12.0724C0 15.6723 1.57649 18.904 4.07469 21.1157Z" fill="#38A7E4"/>
<path d="M19.0323 13.4978C18.3734 16.7385 15.5083 19.1749 12.0747 19.1749C11.2853 19.1749 10.5269 19.0475 9.81978 18.8093L8.24193 23.5237C9.4451 23.9266 10.7338 24.1431 12.0747 24.1431C17.9096 24.1431 22.78 20.0024 23.9018 14.495L19.0323 13.4978Z" fill="#EF3120"/>
<path d="M37.8931 16.0803C37.8913 16.0825 37.8904 16.0834 37.8895 16.0857L37.7504 15.9911C37.3516 16.6391 36.7304 17.1629 35.9447 17.5026C34.45 18.1528 33.0654 17.986 32.0714 17.1138L31.98 17.252L31.9782 17.2498L30.2812 19.7866C30.7023 20.0786 31.1543 20.3273 31.6295 20.5251C33.5024 21.3026 35.419 21.2663 37.307 20.4455C38.6721 19.8548 39.7438 18.9518 40.4768 17.8077L37.8931 16.0803ZM32.5989 9.82203C31.0229 10.5 30.2085 11.9796 30.3763 13.7157L37.0592 10.8388C35.911 9.48736 34.4146 9.04038 32.5989 9.82203ZM28.1623 17.5494C28.0022 17.2912 27.7853 16.8769 27.6548 16.5732C26.8841 14.783 26.8468 12.9305 27.4979 11.1521C28.2136 9.20089 29.5823 7.70806 31.3484 6.94778C33.5715 5.99107 36.0288 6.18068 38.1587 7.44342C39.5105 8.21916 40.4695 9.41733 41.198 11.1116C41.2912 11.3285 41.3717 11.5613 41.4517 11.7577L28.1623 17.5494Z" fill="#231F20"/>
<path d="M46.0975 3.21097V17.3153L48.2902 18.2033L47.0442 21.1099L44.6242 20.104C44.0804 19.868 43.7112 19.5079 43.4306 19.1014C43.1642 18.6871 42.9632 18.1188 42.9632 17.3539V3.21097H46.0975Z" fill="#231F20"/>
<path d="M51.7779 13.7219C51.7788 12.5214 52.3099 11.4442 53.1484 10.7121L50.8985 8.20437C49.3729 9.5535 48.413 11.5229 48.4103 13.7187C48.4076 15.9168 49.3665 17.8884 50.8926 19.2407L53.1384 16.7293C52.3045 15.9954 51.777 14.92 51.7779 13.7219Z" fill="#231F20"/>
<path d="M55.7744 17.7248C55.331 17.7239 54.9059 17.6502 54.5071 17.5175L53.4326 20.7132C54.1669 20.9596 54.9545 21.0933 55.7716 21.0942C59.333 21.0974 62.3081 18.5701 62.9975 15.2102L59.6944 14.5368C59.3198 16.3575 57.706 17.7266 55.7744 17.7248Z" fill="#231F20"/>
<path d="M55.7841 6.35638C54.967 6.35547 54.1822 6.48825 53.4474 6.73243L54.5132 9.92997C54.912 9.79856 55.3385 9.7249 55.7814 9.7249C57.7176 9.72717 59.3314 11.104 59.697 12.9302L63 12.2595C62.3216 8.8955 59.35 6.35865 55.7841 6.35638Z" fill="#231F20"/>
</svg>
