<svg width="14" height="60" viewBox="0 0 14 60" fill="none" xmlns="http://www.w3.org/2000/svg">
<path d="M7 13.3333C7.80695 13.3333 8.56528 13.1801 9.275 12.8737C9.98472 12.5672 10.6021 12.1517 11.1271 11.6271C11.6521 11.1021 12.0676 10.4847 12.3737 9.775C12.6797 9.06528 12.8329 8.30695 12.8333 7.5C12.8333 6.69306 12.6801 5.93472 12.3737 5.225C12.0672 4.51528 11.6517 3.89792 11.1271 3.37292C10.6021 2.84792 9.98472 2.43239 9.275 2.12633C8.56528 1.82028 7.80695 1.66706 7 1.66667C6.19306 1.66667 5.43473 1.81989 4.725 2.12633C4.01528 2.43278 3.39792 2.84831 2.87292 3.37292C2.34792 3.89792 1.9322 4.51528 1.62575 5.225C1.31931 5.93472 1.16628 6.69306 1.16667 7.5C1.16667 8.30695 1.31989 9.06528 1.62634 9.775C1.93278 10.4847 2.34831 11.1021 2.87292 11.6271C3.39792 12.1521 4.01528 12.5678 4.725 12.8743C5.43473 13.1807 6.19306 13.3337 7 13.3333ZM7 12.1667C5.69723 12.1667 4.59375 11.7146 3.68959 10.8104C2.78542 9.90625 2.33334 8.80278 2.33334 7.5C2.33334 6.19722 2.78542 5.09375 3.68959 4.18958C4.59375 3.28542 5.69723 2.83333 7 2.83333C8.30278 2.83333 9.40625 3.28542 10.3104 4.18958C11.2146 5.09375 11.6667 6.19722 11.6667 7.5C11.6667 8.80278 11.2146 9.90625 10.3104 10.8104C9.40625 11.7146 8.30278 12.1667 7 12.1667Z" fill="#7762AF"/>
<g clip-path="url(#clip0_166_1370)">
<path d="M7 23.0833C7.2882 23.0833 7.55903 23.0286 7.8125 22.9192C8.06597 22.8097 8.28646 22.6613 8.47396 22.474C8.66146 22.2865 8.80986 22.066 8.91917 21.8125C9.02847 21.559 9.0832 21.2882 9.08334 21C9.08334 20.7118 9.02861 20.441 8.91917 20.1875C8.80972 19.934 8.66132 19.7135 8.47396 19.526C8.28646 19.3385 8.06597 19.1901 7.8125 19.0808C7.55903 18.9715 7.2882 18.9168 7 18.9167C6.71181 18.9167 6.44097 18.9714 6.1875 19.0808C5.93403 19.1903 5.71354 19.3387 5.52604 19.526C5.33854 19.7135 5.19007 19.934 5.08063 20.1875C4.97118 20.441 4.91653 20.7118 4.91667 21C4.91667 21.2882 4.97139 21.559 5.08084 21.8125C5.19028 22.066 5.33868 22.2865 5.52604 22.474C5.71354 22.6615 5.93403 22.8099 6.1875 22.9194C6.44097 23.0288 6.71181 23.0835 7 23.0833Z" fill="#7762AF"/>
</g>
<g clip-path="url(#clip1_166_1370)">
<path d="M7 32.0833C7.2882 32.0833 7.55903 32.0286 7.8125 31.9192C8.06597 31.8097 8.28646 31.6613 8.47396 31.474C8.66146 31.2865 8.80986 31.066 8.91917 30.8125C9.02847 30.559 9.0832 30.2882 9.08334 30C9.08334 29.7118 9.02861 29.441 8.91917 29.1875C8.80972 28.934 8.66132 28.7135 8.47396 28.526C8.28646 28.3385 8.06597 28.1901 7.8125 28.0808C7.55903 27.9715 7.2882 27.9168 7 27.9167C6.71181 27.9167 6.44097 27.9714 6.1875 28.0808C5.93403 28.1903 5.71354 28.3387 5.52604 28.526C5.33854 28.7135 5.19007 28.934 5.08063 29.1875C4.97118 29.441 4.91653 29.7118 4.91667 30C4.91667 30.2882 4.97139 30.559 5.08084 30.8125C5.19028 31.066 5.33868 31.2865 5.52604 31.474C5.71354 31.6615 5.93403 31.8099 6.1875 31.9194C6.44097 32.0288 6.71181 32.0835 7 32.0833Z" fill="#7762AF"/>
</g>
<g clip-path="url(#clip2_166_1370)">
<path d="M7 41.0833C7.2882 41.0833 7.55903 41.0286 7.8125 40.9192C8.06597 40.8097 8.28646 40.6613 8.47396 40.474C8.66146 40.2865 8.80986 40.066 8.91917 39.8125C9.02847 39.559 9.0832 39.2882 9.08334 39C9.08334 38.7118 9.02861 38.441 8.91917 38.1875C8.80972 37.934 8.66132 37.7135 8.47396 37.526C8.28646 37.3385 8.06597 37.1901 7.8125 37.0808C7.55903 36.9715 7.2882 36.9168 7 36.9167C6.71181 36.9167 6.44097 36.9714 6.1875 37.0808C5.93403 37.1903 5.71354 37.3387 5.52604 37.526C5.33854 37.7135 5.19007 37.934 5.08063 38.1875C4.97118 38.441 4.91653 38.7118 4.91667 39C4.91667 39.2882 4.97139 39.559 5.08084 39.8125C5.19028 40.066 5.33868 40.2865 5.52604 40.474C5.71354 40.6615 5.93403 40.8099 6.1875 40.9194C6.44097 41.0288 6.71181 41.0835 7 41.0833Z" fill="#7762AF"/>
</g>
<path d="M7 58.3333C7.80695 58.3333 8.56528 58.1801 9.275 57.8737C9.98472 57.5672 10.6021 57.1517 11.1271 56.6271C11.6521 56.1021 12.0676 55.4847 12.3737 54.775C12.6797 54.0653 12.8329 53.3069 12.8333 52.5C12.8333 51.6931 12.6801 50.9347 12.3737 50.225C12.0672 49.5153 11.6517 48.8979 11.1271 48.3729C10.6021 47.8479 9.98472 47.4324 9.275 47.1263C8.56528 46.8203 7.80695 46.6671 7 46.6667C6.19306 46.6667 5.43473 46.8199 4.725 47.1263C4.01528 47.4328 3.39792 47.8483 2.87292 48.3729C2.34792 48.8979 1.9322 49.5153 1.62575 50.225C1.31931 50.9347 1.16628 51.6931 1.16667 52.5C1.16667 53.3069 1.31989 54.0653 1.62634 54.775C1.93278 55.4847 2.34831 56.1021 2.87292 56.6271C3.39792 57.1521 4.01528 57.5678 4.725 57.8742C5.43473 58.1807 6.19306 58.3337 7 58.3333Z" fill="#7762AF"/>
<defs>
<clipPath id="clip0_166_1370">
<rect width="5" height="5" fill="white" transform="matrix(-1 0 0 1 9.5 18.5)"/>
</clipPath>
<clipPath id="clip1_166_1370">
<rect width="5" height="5" fill="white" transform="matrix(-1 0 0 1 9.5 27.5)"/>
</clipPath>
<clipPath id="clip2_166_1370">
<rect width="5" height="5" fill="white" transform="matrix(-1 0 0 1 9.5 36.5)"/>
</clipPath>
</defs>
</svg>
