<svg width="42" height="27" viewBox="0 0 52 27" fill="none" xmlns="http://www.w3.org/2000/svg">
<path d="M26.7273 2.81201H13.3636V23.437H26.7273V2.81201Z" fill="#FF5F00"/>
<path d="M16.0567 13.125C16.0567 8.93229 18.0052 5.21355 21 2.8073C18.799 1.0573 16.0206 0 12.9897 0C5.80928 0 0 5.86979 0 13.125C0 20.3802 5.80928 26.25 12.9897 26.25C16.0206 26.25 18.799 25.1927 21 23.4427C18.0052 21.0729 16.0567 17.3177 16.0567 13.125Z" fill="#EB001B"/>
<path d="M42 13.125C42 20.3802 36.1907 26.25 29.0103 26.25C25.9794 26.25 23.201 25.1927 21 23.4427C24.0309 21.0365 25.9433 17.3177 25.9433 13.125C25.9433 8.93229 23.9948 5.21355 21 2.8073C23.201 1.0573 25.9794 0 29.0103 0C36.1907 0 42 5.90625 42 13.125Z" fill="#F79E1B"/>
</svg>
