<svg width="55" height="18" viewBox="0 0 69 23" fill="none" xmlns="http://www.w3.org/2000/svg">
<path d="M29.8999 22.0091H24.3104L27.8065 0.39209H33.3957L29.8999 22.0091Z" fill="#00579F"/>
<path d="M50.1623 0.920322C49.0598 0.482933 47.3112 0 45.149 0C39.6292 0 35.7422 2.94344 35.7183 7.15168C35.6725 10.2565 38.5013 11.981 40.617 13.0162C42.7795 14.0741 43.5146 14.7646 43.5146 15.7075C43.4926 17.1557 41.7672 17.8233 40.1579 17.8233C37.9264 17.8233 36.7307 17.4791 34.9135 16.6734L34.1775 16.328L33.3954 21.1805C34.7063 21.7778 37.1216 22.3078 39.6292 22.331C45.494 22.331 49.3123 19.4331 49.3575 14.9486C49.3798 12.4878 47.8861 10.6022 44.6657 9.0614C42.7108 8.0723 41.5135 7.40537 41.5135 6.39335C41.5364 5.47333 42.5261 4.531 44.733 4.531C46.5501 4.48485 47.8852 4.92163 48.8966 5.35871L49.4021 5.58826L50.1623 0.920322Z" fill="#00579F"/>
<path d="M57.5912 14.351C58.0515 13.1091 59.8228 8.3027 59.8228 8.3027C59.7995 8.34886 60.2822 7.03791 60.5582 6.23312L60.9488 8.09578C60.9488 8.09578 62.0073 13.2702 62.2371 14.351C61.3636 14.351 58.6952 14.351 57.5912 14.351ZM64.4907 0.39209H60.1672C58.834 0.39209 57.821 0.782715 57.2458 2.18566L48.9433 22.0088H54.8082C54.8082 22.0088 55.7738 19.3408 55.9813 18.7661C56.6247 18.7661 62.33 18.7661 63.1577 18.7661C63.3182 19.5251 63.8247 22.0088 63.8247 22.0088H69L64.4907 0.39209Z" fill="#00579F"/>
<path d="M19.6419 0.39209L14.1679 15.1328L13.5698 12.1432C12.5578 8.69363 9.38386 4.94571 5.84195 3.08214L10.8559 21.9862H16.7666L25.5523 0.39209H19.6419Z" fill="#00579F"/>
<path d="M9.08493 0.39209H0.0920012L0 0.828868C7.01505 2.62275 11.661 6.94682 13.5698 12.1442L11.6148 2.2092C11.293 0.828563 10.3039 0.437632 9.08493 0.39209Z" fill="#FAA61A"/>
</svg>
